<svg xmlns="http://www.w3.org/2000/svg" width="40" height="30" viewBox="0 0 40 30" role="img" aria-label="Flying bird">
  <defs>
    <linearGradient id="bird-body" x1="0" x2="1" y1="0" y2="1">
      <stop offset="0%" stop-color="#fff8d6"/>
      <stop offset="100%" stop-color="#f8d94a"/>
    </linearGradient>
    <linearGradient id="bird-wing" x1="0" x2="1" y1="0" y2="1">
      <stop offset="0%" stop-color="#f9d76f"/>
      <stop offset="100%" stop-color="#f5a623"/>
    </linearGradient>
  </defs>
  <path d="M28 15.5c0-5.4-4.8-9.7-10.8-9.7-6.2 0-11.1 3.7-11.1 9.3 0 6.1 5.8 10.5 12.9 10.5 5.7 0 9.8-3.4 9.8-8.1 0-1.2-.3-2.3-.8-3.3Z" fill="url(#bird-body)"/>
  <path d="M11.3 16.3c0-5.1 4-8.7 9-8.7 4.7 0 7.6 2.6 8.4 5.8-2.8 2.4-6 3.9-9.9 4.2-2.9.3-5.2-.5-7.5-1.3Z" fill="url(#bird-wing)"/>
  <path d="M28.2 14.4 38 10v9.8l-9.8-5.4Z" fill="#f97316"/>
  <path d="M23 13.2h3.8l-4.8 4.6h-4l5-4.6Z" fill="#fbbf24" opacity="0.9"/>
  <circle cx="20.7" cy="13.1" r="1.8" fill="#111827"/>
  <circle cx="21.5" cy="12.8" r="0.7" fill="#ffffff"/>
  <path d="M12 10.3c0-1.5 1.2-2.8 2.8-2.8 1.7 0 2.9 1.1 3.2 2.5-2 .3-3.9.9-6 .9Z" fill="#f59e0b" opacity="0.6"/>
</svg>
